<svg xmlns="http://www.w3.org/2000/svg" width="100" height="100" viewBox="0 0 400 400"><g fill-rule="evenodd"><path d="M193.2 210.368c-1.43.17-3.578.607-4.773.971-1.195.363-2.499.661-2.898.661s-2.09.63-3.757 1.4c-1.667.77-3.265 1.4-3.552 1.4-.287 0-.746.27-1.02.6-.274.33-.673.6-.887.6-4.285 0-19.913 17.58-19.913 22.4 0 .403-.33 1.514-.733 2.467-1.906 4.507-2.563 16.266-1.169 20.933 1.645 5.508 2.942 8.509 5.877 13.6 2.607 4.523 2.756 4.16-4.497 10.975-6.242 5.866-5.917 5.764-9.326 2.927-2.396-1.995-2.344-2.02-8.552 4.064-4.741 4.647-7.378 7.186-15.245 14.677a392.826 392.826 0 01-5.6 5.156c-10.849 9.821-11.53 10.63-10.047 11.927 2.915 2.549 10.202 9.332 13.986 13.019 3.337 3.252 2.668 3.423 8.424-2.164 4.659-4.522 7.418-7.102 13.237-12.381 2.062-1.87 4.13-3.827 4.597-4.348.466-.521 2.018-1.933 3.448-3.138 3.587-3.021 11.6-10.97 11.6-11.507 0-.242-.81-1.235-1.8-2.207-2.79-2.738-2.615-3.119 4.414-9.643 4.775-4.433 5.67-5.068 6.824-4.848 1.088.208 6.196 2.911 7.362 3.895.33.279 1.23.638 2 .798.77.16 1.588.441 1.817.624.454.364 4.467 1.337 8.583 2.082 6.676 1.209 19.194.121 24.2-2.102.44-.196 1.25-.478 1.8-.628.55-.15 1.27-.498 1.6-.774.33-.276 1.824-1.103 3.319-1.839 3.945-1.941 11.014-7.795 13.364-11.067a72.228 72.228 0 011.541-2.048c1.222-1.558 2.481-3.847 3.632-6.6.563-1.347 1.283-2.742 1.6-3.099.317-.357.757-1.617.977-2.8.221-1.183.563-2.961.761-3.951.599-3.009.457-13.961-.206-15.8-.317-.88-.579-2.15-.582-2.822-.003-.673-.456-1.833-1.006-2.578-.55-.745-1-1.678-1-2.071 0-1.014-2.236-5.505-3.343-6.715-.51-.557-1.344-1.644-1.851-2.414-1.477-2.239-7.146-7.513-10.406-9.68-1.65-1.097-3.36-2.313-3.8-2.702-.44-.389-1.16-.807-1.6-.93-.44-.122-2.33-.783-4.2-1.469-7.094-2.603-16.048-3.704-23.2-2.851m13.762 7.837c21.804 4.172 35.266 25.811 28.367 45.595-9.258 26.549-44.87 33.445-64.381 12.468-23.615-25.39.827-64.796 36.014-58.063m-10.933 16.947c-1.414.371-2.644.893-2.733 1.161-.09.268-.61.487-1.156.487-.546 0-1.583.45-2.304 1-.722.55-1.422 1-1.558 1-.56 0-4.158 4.192-5.178 6.035-1.832 3.306-3.014 10.211-1.935 11.29.313.313.435.198.435-.412 0-1.922.398-2.186 1.677-1.11 1.394 1.173 1.923 1.001 1.923-.627 0-1.047.135-1.176 1.233-1.176.977 0 1.932-.636 4.6-3.065 3.623-3.298 3.82-3.682 2.511-4.902l-.857-.798-.772.983c-.964 1.224-1.837 1.256-2.281.082-.455-1.206.158-2.269 1.597-2.771.643-.224 1.169-.66 1.169-.968 0-.883 1.645-.674 1.884.239.337 1.289.916.919.916-.586 0-.961-.237-1.513-.774-1.8-1.018-.545-.948-.564-2.188.586-1.752 1.624-2.552 1.291-1.202-.5 1.659-2.199 2.134-2.448 4.606-2.417l2.241.029-.082 2.244c-.046 1.234-.219 2.739-.385 3.344-.339 1.231.5 1.565 1.351.539.256-.308.878-.664 1.381-.79.963-.242 2.048-2.121 3.434-5.949.219-.605.628-1.103.908-1.106.353-.004.325-.125-.09-.394-.919-.594-5.5-.401-8.371.352M206.6 236c.136.22.787.4 1.447.4.698 0 1.097-.167.953-.4-.136-.22-.787-.4-1.447-.4-.698 0-1.097.167-.953.4m3.69 1.323c2.544 1.413 3.49 5.214 1.11 4.457-2.952-.94-4.568-.202-4.591 2.096-.013 1.29.606 1.448 1.134.289.535-1.174 1.257-.937 1.257.413 0 .951-1.462 2.222-2.557 2.222-.322 0-.956.495-1.41 1.1a49.875 49.875 0 01-1.229 1.583c-.222.266-.404.903-.404 1.416 0 .512-.36 1.638-.8 2.501-1.248 2.447-.31 4.2 2.247 4.2 1.839 0 2.953 1.522 2.953 4.032 0 5.665 3.525 4.57 5.574-1.732.269-.825.634-1.5.813-1.5.178 0 .443-.634.588-1.409.146-.775.616-1.628 1.045-1.896.429-.268.78-.894.78-1.391 0-.733.222-.904 1.171-.904 1.513 0 2.829 1.618 2.829 3.478 0 .811.163 1.268.4 1.122.659-.407.478-6.956-.249-8.987-1.371-3.828-2.17-5.157-4.62-7.675-2.582-2.653-4.593-3.949-6.092-3.924-.825.014-.825.022.051.509m-2.114 12.49c.428.323 1.385.587 2.128.587 1.173 0 1.335.119 1.224.9-.155 1.094-2.396 1.378-3.695.468-.446-.312-1.131-.568-1.522-.568-.697 0-1-1.178-.444-1.733.437-.437 1.481-.281 2.309.346m-18.309 7.654c-.976.976-.218 3.592 1.533 5.289 1.035 1.003 1.8 2.11 1.8 2.605 0 .474.246 1.216.546 1.65 1.063 1.536 1.155 2.503.265 2.786-2.53.803 2.576 1.899 7.989 1.715l4.2-.143-4.482-.085c-4.213-.079-4.543-.145-5.5-1.102-1.293-1.293-1.358-.908 1.019-6.026 1.404-3.024 1.149-3.568-2.595-5.52-2.627-1.369-4.192-1.752-4.775-1.169m-7.998.697c-.262.684.108 2.236.534 2.236.171 0 .413.405.539.9.292 1.15 4.611 6.3 5.284 6.3.279 0 .574.201.656.446.082.245.502.363.933.262.749-.176.751-.199.046-.504-.88-.38-4.661-4.096-4.661-4.58 0-.186-.27-.442-.6-.569-.33-.126-.6-.601-.6-1.055 0-.454-.27-.929-.6-1.055-.338-.13-.6-.726-.6-1.364 0-1.25-.593-1.898-.931-1.017m38.031.064c-.165.168-.3.796-.3 1.396 0 .6-.27 1.194-.6 1.321-.33.126-.6.498-.6.825 0 .327-.718 1.368-1.595 2.313-.877.944-1.597 1.852-1.6 2.017-.003.165-.275.3-.605.3-.33 0-.6.27-.6.6 0 .33-.349.6-.776.6-.427 0-.888.18-1.024.4-.896 1.451 1.772-.014 3.826-2.1 3.358-3.409 3.574-3.675 3.574-4.4 0-.348.194-.698.432-.777.238-.08.373-.742.3-1.472-.073-.73-.267-1.19-.432-1.023M190.6 269.2c.136.22.597.4 1.024.4.427 0 .776-.18.776-.4 0-.22-.461-.4-1.024-.4-.58 0-.916.173-.776.4m19.6 0c-.136.22.113.4.553.4.44 0 .911-.18 1.047-.4.136-.22-.113-.4-.553-.4-.44 0-.911.18-1.047.4m-3 1.2c0 .508 1.214.508 2 0 .455-.294.286-.389-.7-.394-.715-.003-1.3.174-1.3.394" fill="#1186b8"/><path d="M182.524 57.139c-1.142.364-2.207.796-2.367.961-.16.165-.544.3-.854.3-.827 0-5.039 3.349-6.406 5.094-3.129 3.994-4.54 7.738-4.861 12.906-.258 4.162-.855 4.865-2.959 3.488-4.11-2.69-11.788-2.427-17.471.597-2.164 1.152-8.006 6.695-8.006 7.597 0 .25-.233.739-.518 1.087-.665.809-1.681 3.966-2.264 7.031-.332 1.747-.424 18.044-.337 59.9l.119 57.5h-.826c-.545 0-1.127-.535-1.709-1.569-.485-.864-1.013-1.629-1.173-1.7-.161-.072-1.185-1.301-2.276-2.731-1.092-1.43-2.09-2.69-2.219-2.8-.129-.11-1.118-1.37-2.197-2.8-1.079-1.43-2.07-2.69-2.201-2.8-.13-.11-1.469-1.788-2.973-3.728-5.111-6.59-9.882-9.072-17.441-9.072-17.423 0-28.068 18.081-20.371 34.6.307.66 3.489 5.16 7.071 10s8.489 11.5 10.905 14.8c2.415 3.3 4.54 6.18 4.722 6.4.325.394 1.282 1.682 13.675 18.4 3.425 4.62 8.204 11.06 10.62 14.312 2.416 3.251 4.573 6.206 4.793 6.565 1.382 2.256 1.434 2.242 5.14-1.365 3.869-3.767 3.798-3.628 2.56-4.973-.495-.538-1.377-1.689-1.961-2.558-.583-.87-1.352-1.941-1.709-2.381-.356-.44-3.362-4.49-6.679-9a7588.46 7588.46 0 00-18.169-24.6C98.046 224.842 92.4 217.115 92.4 216.785c0-.212-.159-.385-.354-.385-.683 0-1.646-3.979-1.646-6.8 0-6.909 6.153-13.2 12.911-13.2 4.946 0 7.111 1.583 13.678 10 1.973 2.53 3.692 4.69 3.818 4.8.127.11 1.116 1.37 2.199 2.8 1.083 1.43 2.197 2.835 2.475 3.123.279.287 1.356 1.637 2.394 3 1.038 1.362 1.994 2.567 2.125 2.677.131.11 1.124 1.37 2.208 2.8 6.768 8.933 9.21 10.499 12.18 7.811 2.129-1.927 2.012 2.145 2.012-69.996V96.75l1.022-2.16c3.589-7.586 13.317-8.66 18.375-2.029 2.238 2.933 2.211 2.376 2.199 46.332-.006 22.234.073 40.51.176 40.612.349.349 8.693.19 9.056-.173.209-.209.405-22.283.466-52.546L177.8 74.6l.879-1.832c1.541-3.212 4.824-5.678 8.312-6.244 1.521-.247 6.209.915 6.209 1.539 0 .185.19.337.423.337.622 0 2.707 2.362 3.706 4.2l.871 1.6.207 50c.114 27.5.249 50.045.3 50.1.051.055 2.159.1 4.685.1h4.591l.109-44.3c.121-48.81.01-46.658 2.568-49.699 3.804-4.52 13.532-3.896 16.27 1.044 2.18 3.933 2.06.971 2.185 54.251l.115 49.096.885.221c.487.122 2.595.169 4.685.104l3.8-.117.23-35c.239-36.593.255-36.909 2.029-40.676 1.79-3.802 3.542-4.726 8.941-4.719 5.424.006 7.332 1.497 9.209 7.195 1.201 3.643 1.247 169.477.049 174-1.579 5.96-4.77 12.676-7.239 15.234-.23.239-1.049 1.213-1.819 2.165-1.178 1.456-2.511 2.655-6.674 6.003-6.488 5.217-11.643 5.982-40.326 5.983-28.994.001-31.366-.327-39.367-5.446l-2.895-1.852-2.269 2.208a524.973 524.973 0 01-3.61 3.483c-1.543 1.468-1.747 1.157 2.741 4.178 5.758 3.875 10.619 5.828 17.6 7.071 6.353 1.131 49.249 1.146 55.6.019 17.807-3.159 31.936-16.177 36.954-34.046 1.928-6.868 1.846-2.766 1.846-92.134 0-87.772.015-86.921-1.617-90.866-1.554-3.754-2.133-4.878-3.263-6.332-5.531-7.112-15.395-9.409-23.235-5.409-2.493 1.272-2.685.987-2.685-3.992 0-4.816-.725-9.324-2.069-12.868-2.678-7.061-8.327-11.284-15.811-11.819-4.606-.329-9.561.594-11.406 2.125-1.492 1.238-2.356.802-3.864-1.954-4.993-9.12-14.184-13.258-23.126-10.412m10.402 161.664c-26.006 3.802-39.215 33.658-23.89 53.997 19.504 25.886 61.832 16.379 66.784-15 3.655-23.157-17.804-42.665-42.894-38.997m10.284 9.621c7.802.977 17.192 5.446 15.564 7.407-.699.843-1.123.739-5.122-1.248-11.173-5.552-21.743-4.819-29.623 2.054-2.577 2.247-3.143 2.489-3.949 1.683-.771-.771-.573-1.337 1.02-2.909 5.762-5.688 13.345-8.084 22.11-6.987m5.55 6.719c5.121 1.972 9.271 5.52 11.32 9.678 4.502 9.138 1.301 19.755-7.471 24.774-10.748 6.149-25.954 1.959-30.463-8.395l-1.091-2.514c-1.197-2.765-.511-11.925.98-13.086.142-.11.374-.576.517-1.035.144-.459.753-1.388 1.354-2.064l1.929-2.165c1.04-1.165 2.613-2.498 3.382-2.865.321-.153 1.213-.661 1.983-1.129 4.047-2.459 12.744-3.053 17.56-1.199m-4.929 1.722c-.994 3.125-1.862 4.981-2.482 5.314-.412.221-1.419.832-2.238 1.358-2.448 1.573-3.353.637-2.042-2.113.795-1.666.267-3.424-1.027-3.424-.426 0-.835-.139-.909-.31-.073-.17-.763-.09-1.533.178-1.243.432-1.285.489-.376.509 2.398.053 3.445 3.843 1.376 4.982-.44.243-.885.496-.988.563-.104.067.044.265.329.441 1.125.696 1.281 3.248.222 3.651-.53.201-.963.539-.963.749 0 .211-.344.492-.765.626-.421.133-1.543 1.046-2.494 2.027-1.352 1.395-2.014 1.784-3.035 1.784-1.517 0-1.899 1.358-.506 1.8.441.14.977.584 1.193.987.649 1.213-.58 1.297-3.043.208-1.933-.855-2.196-.894-1.957-.291.151.383.374 1.326.495 2.096s.423 1.67.671 2c.247.33.79 1.214 1.207 1.965.852 1.539 4.019 4.729 5.234 5.274.44.198 1.07.512 1.4.698 2.115 1.194 2.4 1.276 2.4.69 0-.319-.175-.688-.389-.82-.214-.133-.57-.914-.792-1.736-.233-.865-1.179-2.294-2.245-3.391-3.444-3.543-.764-8.242 3.026-5.305.33.255 1.32.814 2.2 1.241 3.337 1.62 3.647 2.447 2.046 5.459-2.837 5.336-.263 7.985 6.154 6.333.99-.255 2.25-.557 2.8-.672 3.43-.714 10.065-5.568 11.19-8.185.224-.523.562-1.221.751-1.551 1.136-1.987 1.626-4.59 1.034-5.494-.578-.882-2.175-1.276-2.175-.537 0 .203-.438.891-.974 1.527-.536.637-1.093 1.633-1.239 2.214-.146.582-.518 1.267-.826 1.523-.645.534-.756 2.599-.161 2.967.22.136.4.507.4.824 0 .317-.18.576-.4.576-.22 0-.4-.27-.4-.6 0-.991-.739-.679-1.394.588-2.053 3.971-5.001 3.087-5.005-1.502-.002-2.4-.931-3.686-2.664-3.686-1.418 0-2.487-.744-3.292-2.291-.511-.982.323-3.709 1.135-3.709.231 0 .42-.726.42-1.613 0-1.064.204-1.69.6-1.842.33-.127.6-.468.6-.759 0-.29.452-.884 1.005-1.318.862-.679.948-.94.604-1.844-.885-2.328 1.841-4.955 4.384-4.226 1.777.51 2.328-.022 1.357-1.309-1.384-1.835-7.522-3.869-7.919-2.624m-12.731 6.164c-1.073.582-1.556 2.171-.66 2.171.396 0 2.76-2.262 2.76-2.642 0-.335-1.048-.1-2.1.471" fill="#fff"/><path d="M121.745 12.6c-.127.33-.661.6-1.188.6-.584 0-.957.234-.957.6 0 .33-.27.6-.6.6-.33 0-.6.27-.6.6 0 .33-.183.6-.406.6-.531 0-6.394 5.863-6.394 6.394 0 .223-.27.406-.6.406-.33 0-.6.27-.6.6 0 .33-.183.6-.406.6-.531 0-6.394 5.863-6.394 6.394 0 .223-.27.406-.6.406-.33 0-.6.27-.6.6 0 .33-.183.6-.406.6-.531 0-6.394 5.863-6.394 6.394 0 .223-.27.406-.6.406-.33 0-.6.27-.6.6 0 .33-.183.6-.406.6-.531 0-6.394 5.863-6.394 6.394 0 .223-.27.406-.6.406-.33 0-.6.27-.6.6 0 .33-.183.6-.406.6-.224 0-1.754 1.347-3.4 2.994-1.647 1.646-2.994 3.176-2.994 3.4 0 .223-.27.406-.6.406-.33 0-.6.27-.6.6 0 .33-.183.6-.406.6-.224 0-1.754 1.347-3.4 2.994-1.647 1.646-2.994 3.176-2.994 3.4 0 .223-.27.406-.6.406-.33 0-.6.27-.6.6 0 .33-.183.6-.406.6-.224 0-1.754 1.347-3.4 2.994-1.647 1.646-2.994 3.176-2.994 3.4 0 .223-.27.406-.6.406-.33 0-.6.27-.6.6 0 .33-.183.6-.406.6-.224 0-1.754 1.347-3.4 2.994-1.647 1.646-2.994 3.176-2.994 3.4 0 .223-.27.406-.6.406-.33 0-.6.27-.6.6 0 .33-.183.6-.406.6-.224 0-1.754 1.347-3.4 2.994-1.647 1.646-2.994 3.176-2.994 3.4 0 .223-.27.406-.6.406-.33 0-.6.27-.6.6 0 .33-.183.6-.406.6-.531 0-6.394 5.863-6.394 6.394 0 .223-.27.406-.6.406-.33 0-.6.27-.6.6 0 .33-.183.6-.406.6-.531 0-6.394 5.863-6.394 6.394 0 .223-.27.406-.6.406-.33 0-.6.27-.6.6 0 .33-.183.6-.406.6-.531 0-6.394 5.863-6.394 6.394 0 .223-.27.406-.6.406-.33 0-.6.27-.6.6 0 .33-.183.6-.406.6-.531 0-6.394 5.863-6.394 6.394 0 .223-.27.406-.6.406-.33 0-.6.27-.6.6 0 .33-.27.6-.6.6-.366 0-.6.373-.6.957 0 .527-.27 1.061-.6 1.188-.53.203-.6 9.223-.6 77.842 0 68.723.069 77.613.6 77.613.333 0 .6.356.6.8 0 .833 1.306 2.4 2 2.4.22 0 .4.18.4.399 0 .552 7.008 7.601 7.556 7.601.244 0 .444.18.444.399 0 .552 7.008 7.601 7.556 7.601.244 0 .444.18.444.399 0 .552 7.008 7.601 7.556 7.601.244 0 .444.18.444.399 0 .552 7.008 7.601 7.556 7.601.244 0 .444.18.444.399 0 .552 7.008 7.601 7.556 7.601.244 0 .444.18.444.399 0 .552 7.008 7.601 7.556 7.601.244 0 .444.18.444.399 0 .552 7.008 7.601 7.556 7.601.244 0 .444.18.444.399 0 .552 7.008 7.601 7.556 7.601.244 0 .444.18.444.399 0 .552 7.008 7.601 7.556 7.601.244 0 .444.18.444.399 0 .552 7.008 7.601 7.556 7.601.244 0 .444.185.444.411 0 .536 7.053 7.589 7.589 7.589.226 0 .411.185.411.411 0 .536 7.053 7.589 7.589 7.589.226 0 .411.18.411.399 0 .552 7.008 7.601 7.556 7.601.244 0 .444.27.444.6 0 .373.378.6 1 .6s1 .227 1 .6c0 .531 8.911.6 77.8.6s77.8-.069 77.8-.6c0-.333.356-.6.8-.6.44 0 1.798-.99 3.017-2.2 1.22-1.21 2.39-2.2 2.601-2.2.21 0 .382-.27.382-.6 0-.33.27-.6.6-.6.33 0 .6-.171.6-.381 0-.496 5.923-6.419 6.419-6.419.21 0 .381-.27.381-.6 0-.33.27-.6.6-.6.33 0 .6-.171.6-.381 0-.496 5.923-6.419 6.419-6.419.21 0 .381-.27.381-.6 0-.33.27-.6.6-.6.33 0 .6-.171.6-.381 0-.496 5.923-6.419 6.419-6.419.21 0 .381-.27.381-.6 0-.33.27-.6.6-.6.33 0 .6-.171.6-.381 0-.496 5.923-6.419 6.419-6.419.21 0 .381-.27.381-.6 0-.33.27-.6.6-.6.33 0 .6-.171.6-.381 0-.496 5.923-6.419 6.419-6.419.21 0 .381-.27.381-.6 0-.33.27-.6.6-.6.33 0 .6-.171.6-.381 0-.496 5.923-6.419 6.419-6.419.21 0 .381-.27.381-.6 0-.33.27-.6.6-.6.33 0 .6-.171.6-.381 0-.496 5.923-6.419 6.419-6.419.21 0 .381-.27.381-.6 0-.33.27-.6.6-.6.33 0 .6-.171.6-.381 0-.496 5.923-6.419 6.419-6.419.21 0 .381-.27.381-.6 0-.33.27-.6.6-.6.33 0 .6-.171.6-.381 0-.496 5.923-6.419 6.419-6.419.21 0 .381-.27.381-.6 0-.33.27-.6.6-.6.33 0 .6-.171.6-.381 0-.209 1.359-1.739 3.019-3.4 1.661-1.66 3.191-3.019 3.4-3.019.21 0 .381-.27.381-.6 0-.33.27-.6.6-.6.33 0 .6-.171.6-.381 0-.209 1.359-1.739 3.019-3.4 1.661-1.66 3.191-3.019 3.4-3.019.21 0 .381-.27.381-.6 0-.33.27-.6.6-.6.33 0 .6-.171.6-.381 0-.209 1.359-1.739 3.019-3.4 1.661-1.66 3.191-3.019 3.4-3.019.21 0 .381-.27.381-.6 0-.33.27-.6.6-.6.33 0 .6-.172.6-.382 0-.211.99-1.381 2.2-2.601 1.21-1.219 2.2-2.577 2.2-3.017 0-.444.267-.8.6-.8.531 0 .6-8.911.6-77.8s-.069-77.8-.6-77.8c-.373 0-.6-.378-.6-1s-.227-1-.6-1c-.33 0-.6-.2-.6-.444 0-.548-7.049-7.556-7.601-7.556-.219 0-.399-.2-.399-.444 0-.548-7.049-7.556-7.601-7.556-.219 0-.399-.2-.399-.444 0-.548-7.049-7.556-7.601-7.556-.219 0-.399-.2-.399-.444 0-.548-7.049-7.556-7.601-7.556-.219 0-.399-.2-.399-.444 0-.548-7.049-7.556-7.601-7.556-.219 0-.399-.2-.399-.444 0-.548-7.049-7.556-7.601-7.556-.219 0-.399-.2-.399-.444 0-.548-7.049-7.556-7.601-7.556-.219 0-.399-.2-.399-.444 0-.548-7.049-7.556-7.601-7.556-.219 0-.399-.2-.399-.444 0-.548-7.049-7.556-7.601-7.556-.219 0-.399-.2-.399-.444 0-.548-7.049-7.556-7.601-7.556-.219 0-.399-.2-.399-.444 0-.548-7.049-7.556-7.601-7.556-.219 0-.399-.2-.399-.444 0-.548-7.049-7.556-7.601-7.556-.219 0-.399-.2-.399-.444 0-.548-7.049-7.556-7.601-7.556a.401.401 0 01-.399-.4c0-.694-1.567-2-2.4-2-.444 0-.8-.267-.8-.6 0-.913-155.105-.913-155.455 0m71.945 43.73c.259.259.819.47 1.246.47 2.5 0 9.351 6.293 11.328 10.407 1.136 2.362 2.289 3.102 2.791 1.793.127-.33.535-.6.908-.6.372 0 .879-.202 1.125-.448 1.179-1.179 8.657-1.894 12.112-1.158 2.129.454 3.689 1.035 6.2 2.307 1.445.732 5.669 4.951 6.211 6.204.213.492.537 1.165.721 1.495 1.097 1.974 1.668 3.361 1.668 4.052 0 .433.25 1.274.556 1.868.349.679.664 3.271.848 6.98.291 5.87.837 7.375 1.996 5.5.136-.22.552-.401.924-.402.372-.002 1.192-.272 1.822-.6 1.301-.679 10.438-.872 10.835-.229.125.203.811.497 1.524.653 4.66 1.021 12.295 9.509 12.295 13.671 0 .445.27 1.456.6 2.245.77 1.842.925 173.837.159 176.265a34.117 34.117 0 00-.757 2.997c-.282 1.427-.597 2.439-1.617 5.2-.783 2.119-4.529 9.4-4.836 9.4-.192 0-.349.199-.349.442 0 .244-.583 1.189-1.296 2.1-.714.912-1.479 1.903-1.7 2.203-4.992 6.735-16.848 14.395-24.204 15.635-.99.167-2.307.51-2.926.762-1.84.748-55.968.605-58.074-.154-.88-.317-2.174-.579-2.876-.582-.702-.003-1.379-.172-1.505-.375-.125-.203-.805-.496-1.51-.651-.706-.155-1.559-.428-1.896-.606-.337-.179-1.963-.97-3.613-1.759-2.944-1.407-6.161-3.466-7.856-5.026-1.286-1.184-1.589-1.047-5.109 2.311a277.187 277.187 0 01-6.188 5.7c-3.823 3.384-12.268 11.375-15.939 15.081-2.544 2.568-4.108 3.564-4.108 2.617 0-.556-7.373-7.778-13.043-12.775-6.225-5.486-6.098-5.153-3.057-8.059l5.5-5.253c1.76-1.68 3.697-3.432 4.304-3.894.608-.461 4.388-3.985 8.4-7.831 4.013-3.846 7.971-7.619 8.796-8.386 1.333-1.239 2.042-3.1 1.18-3.1-.175 0-.76-.715-1.3-1.589-.539-.874-1.115-1.594-1.28-1.6-.165-.006-.3-.281-.3-.611 0-.33-.158-.6-.351-.6-.193 0-1.048-1.033-1.9-2.296-.852-1.263-2.043-2.838-2.647-3.5-.604-.662-1.099-1.414-1.1-1.671-.001-.256-.138-.526-.305-.6-.398-.175-2.897-3.373-2.897-3.707 0-.285-.153-.482-2.19-2.826-.765-.88-1.396-1.81-1.401-2.067-.005-.256-.145-.526-.312-.6-.517-.227-2.897-3.423-2.897-3.891 0-.243-.158-.442-.351-.442-.193 0-1.048-1.032-1.9-2.294-.852-1.261-1.956-2.746-2.453-3.3-.498-.553-1.005-1.321-1.127-1.706-.123-.385-.391-.7-.596-.7-.205 0-.373-.27-.373-.6 0-.33-.142-.6-.315-.6-.323 0-3.285-3.796-3.285-4.211 0-.128-.539-.808-1.198-1.511-.659-.703-1.199-1.421-1.2-1.595-.001-.174-.358-.699-.794-1.166-.435-.468-1.29-1.585-1.9-2.483-.609-.899-1.243-1.694-1.408-1.767a.564.564 0 01-.3-.476c0-.188-.54-.933-1.2-1.655-.66-.723-1.2-1.462-1.2-1.642 0-.18-.356-.71-.792-1.177-.435-.468-1.29-1.585-1.899-2.483-.609-.899-1.202-1.724-1.318-1.834-.561-.531-2.791-3.547-2.791-3.775 0-.143-.458-.747-1.018-1.342-.56-.596-1.41-1.713-1.887-2.483-.478-.77-1.237-1.803-1.688-2.295-.451-.492-1.176-1.572-1.612-2.4-.436-.828-1.019-1.743-1.294-2.034-.276-.29-.501-.839-.501-1.22 0-.38-.178-.869-.396-1.087-.422-.422-1.008-2.844-1.634-6.746-.486-3.038.555-10.091 1.653-11.198.207-.209.377-.682.377-1.051 0-.369.27-.895.6-1.169.33-.274.6-.842.6-1.262 0-.419.27-.867.6-.993.33-.127.6-.46.6-.74 0-.737 5.446-6.205 6.181-6.205.34 0 .619-.164.619-.364 0-.201.855-.754 1.9-1.229 1.045-.475 2.235-1.045 2.644-1.267.776-.419 3.571-1.004 6.656-1.392 6.512-.819 13.962 3.017 19.4 9.988 1.54 1.974 3.653 4.596 4.696 5.827 1.043 1.23 1.898 2.357 1.9 2.503.002.147.724 1.039 1.604 1.983.88.943 1.6 1.846 1.6 2.005 0 .159.232.527.516.817.283.291 1.183 1.41 2 2.487l1.484 1.957.024-57.357c.013-31.547.179-58.168.37-59.158.836-4.348 3.118-10 4.037-10 .203 0 .369-.255.369-.566 0-.688 4.721-5.034 5.468-5.034.293 0 .532-.145.532-.323 0-.178.765-.651 1.7-1.051.935-.401 2.313-1.009 3.062-1.352.963-.441 2.662-.63 5.8-.643 4.351-.018 5.478.224 8.333 1.788 1.364.748 1.704.448 1.723-1.519.02-2.194.753-6.476 1.294-7.559.204-.408.707-1.461 1.118-2.341 1.007-2.157 3.701-5.666 5.764-7.508 1.77-1.58 6.134-3.837 8.606-4.449 1.537-.381 9.41.007 9.89.487M184 68.2c-.274.33-.711.6-.971.6-.791 0-2.897 2.489-3.788 4.478-.841 1.878-.841 1.886-.841 54.071 0 46.916-.064 52.257-.629 52.822-.992.993-9.393.909-10.309-.102-.607-.671-.662-4.192-.662-42.44 0-38.427-.054-41.823-.68-43.169-3.253-6.981-13.625-7.252-17.846-.465L147.4 95.4l-.2 67.8c-.227 76.836.135 69.489-3.504 71.251-3.069 1.485-5.549.299-8.753-4.183-.813-1.138-1.681-2.248-1.928-2.468-.248-.22-1.613-1.909-3.033-3.754a578.498 578.498 0 00-10.922-13.793c-.693-.852-1.418-1.822-1.611-2.156-.341-.591-.869-1.236-3.143-3.843-.601-.69-1.096-1.359-1.1-1.487-.044-1.62-6.059-5.536-9.014-5.869-3.347-.377-11.392 4.21-11.392 6.496 0 .279-.251.716-.558.971-2.005 1.664-1.409 9.247.992 12.614A140.616 140.616 0 0195 219.501c.22.333.895 1.162 1.5 1.842.605.679 1.1 1.383 1.1 1.563 0 .18.371.725.825 1.211.455.486 1.453 1.826 2.219 2.978.766 1.153 1.924 2.678 2.574 3.389.65.712 1.182 1.442 1.182 1.622 0 .18.182.545.404.811.223.266.941 1.113 1.596 1.883.656.77 1.296 1.715 1.423 2.1s.356.7.51.7c.153 0 .723.72 1.267 1.6.544.88 1.126 1.6 1.294 1.6.168 0 .306.227.306.504s.411.952.913 1.5 1.327 1.671 1.833 2.496 1.048 1.5 1.206 1.5c.157 0 .968 1.07 1.801 2.378.834 1.308 1.642 2.433 1.797 2.5.156.067.857.981 1.559 2.031.701 1.049 1.457 2.129 1.678 2.4 1.383 1.686 3.38 4.37 4.538 6.098.74 1.104 1.607 2.274 1.925 2.6.319.326.966 1.223 1.438 1.993.473.77 1.193 1.76 1.602 2.2.409.44 1.32 1.642 2.025 2.67.705 1.029 1.508 2.113 1.784 2.411.275.297.943 1.166 1.483 1.93.54.764 1.125 1.569 1.3 1.789.174.22 1.485 2.02 2.913 4 2.798 3.878 7.444 8.209 8.781 8.185.949-.017 11.024-9.555 11.024-10.436 0-.309-.737-1.819-1.639-3.355-.901-1.537-2.181-3.964-2.843-5.394-.663-1.43-1.364-2.91-1.558-3.289-1.49-2.908-2.36-8.378-2.36-14.835v-6.604l1.666-5.136c2.914-8.985 9.697-18.701 15.525-22.239.775-.47 1.499-.954 1.609-1.076.616-.681 4.077-2.843 5.8-3.623l4-1.81c4.891-2.212 11.19-3.389 18.125-3.384 8.722.005 16.652 1.833 22.513 5.187 1.189.681 2.567 1.44 3.062 1.687.495.248.9.602.9.786 0 .185.194.336.43.336 1.166 0 11.966 9.968 11.972 11.048.001.194.501.892 1.112 1.552 6.188 6.691 9.528 25.19 6.125 33.926-.242.619-.439 1.48-.439 1.913 0 1.031-4.029 9.097-6.075 12.161-5.824 8.725-21.926 19-29.774 19-.689 0-1.9.27-2.689.6-2.009.839-11.192.839-13.2 0-.79-.33-2.034-.6-2.765-.6-2.755 0-11.121-2.799-13.697-4.583-5.14-3.558-5.505-3.478-11.7 2.552-5.548 5.4-5.552 5.41-3.1 7.717 1.974 1.858 2.248 2.985 1 4.114-1.015.919-1.004 1.178.1 2.213.941.884 6.249 3.587 7.042 3.587.252 0 .458.156.458.346 0 .19.837.46 1.86.6 1.022.14 2.13.48 2.461.755.829.688 55.668.732 56.518.045.308-.249 1.191-.575 1.961-.723 1.555-.299 1.809-.398 5.8-2.258 5.874-2.737 12.516-9.096 15.211-14.565.434-.88.924-1.66 1.089-1.733.165-.074.3-.406.3-.739 0-.332.245-1.082.545-1.666.774-1.511 1.432-3.47 2.169-6.462.987-4.008 1.238-167.959.263-172.2-.913-3.976-2.483-7-3.633-7-.262 0-.552-.225-.644-.5-.293-.88-8.245-.669-9.981.265-4.408 2.371-4.74 5.711-4.712 47.388.016 23.18-.099 31.476-.442 31.889-.563.679-8.77.797-9.991.144-.759-.406-.774-1.376-.774-49.15 0-42.298-.079-48.96-.6-50.436-.33-.935-.6-2.128-.6-2.65 0-.523-.168-.95-.373-.95s-.493-.378-.64-.839c-.944-2.978-6.969-4.511-11.374-2.896-1.892.694-4.413 2.739-4.413 3.58 0 .269-.225.563-.5.655-.395.132-.522 9.711-.605 45.733-.098 42.107-.157 45.605-.777 46.067-.832.62-9.017.689-10.144.086-.759-.406-.774-1.389-.774-50.324 0-43.264-.078-50.012-.587-50.686-.323-.427-.593-1.048-.6-1.38-.069-3.249-10.323-6.715-12.413-4.196" fill="#372ac7"/><path d="M183.8 55.843c-2.472.612-6.836 2.869-8.606 4.449-2.063 1.842-4.757 5.351-5.764 7.508-.411.88-.914 1.933-1.118 2.341-.541 1.083-1.274 5.365-1.294 7.559-.019 1.967-.359 2.267-1.723 1.519-2.855-1.564-3.982-1.806-8.333-1.788-3.138.013-4.837.202-5.8.643-.749.343-2.127.951-3.062 1.352-.935.4-1.7.873-1.7 1.051 0 .178-.239.323-.532.323-.747 0-5.468 4.346-5.468 5.034 0 .311-.166.566-.369.566-.919 0-3.201 5.652-4.037 10-.191.99-.357 27.611-.37 59.158l-.024 57.357-1.484-1.957c-.817-1.077-1.717-2.196-2-2.487-.284-.29-.516-.658-.516-.817 0-.159-.72-1.062-1.6-2.005-.88-.944-1.602-1.836-1.604-1.983-.002-.146-.857-1.273-1.9-2.503-1.043-1.231-3.156-3.853-4.696-5.827-5.438-6.971-12.888-10.807-19.4-9.988-3.085.388-5.88.973-6.656 1.392-.409.222-1.599.792-2.644 1.267-1.045.475-1.9 1.028-1.9 1.229 0 .2-.279.364-.619.364-.735 0-6.181 5.468-6.181 6.205 0 .28-.27.613-.6.74-.33.126-.6.574-.6.993 0 .42-.27.988-.6 1.262-.33.274-.6.8-.6 1.169s-.17.842-.377 1.051c-1.098 1.107-2.139 8.16-1.653 11.198.626 3.902 1.212 6.324 1.634 6.746.218.218.396.707.396 1.087 0 .381.225.93.501 1.22.275.291.858 1.206 1.294 2.034.436.828 1.161 1.908 1.612 2.4.451.492 1.21 1.525 1.688 2.295.477.77 1.327 1.887 1.887 2.483.56.595 1.018 1.199 1.018 1.342 0 .228 2.23 3.244 2.791 3.775.116.11.709.935 1.318 1.834.609.898 1.464 2.015 1.899 2.483.436.467.792.997.792 1.177 0 .18.54.919 1.2 1.642.66.722 1.2 1.467 1.2 1.655 0 .188.135.402.3.476.165.073.799.868 1.408 1.767.61.898 1.465 2.015 1.9 2.483.436.467.793.992.794 1.166.001.174.541.892 1.2 1.595.659.703 1.198 1.383 1.198 1.511 0 .415 2.962 4.211 3.285 4.211.173 0 .315.27.315.6 0 .33.168.6.373.6s.473.315.596.7c.122.385.629 1.153 1.127 1.706.497.554 1.601 2.039 2.453 3.3.852 1.262 1.707 2.294 1.9 2.294.193 0 .351.199.351.442 0 .468 2.38 3.664 2.897 3.891.167.074.307.344.312.6.005.257.636 1.187 1.401 2.067 2.037 2.344 2.19 2.541 2.19 2.826 0 .334 2.499 3.532 2.897 3.707.167.074.304.344.305.6.001.257.496 1.009 1.1 1.671.604.662 1.795 2.237 2.647 3.5.852 1.263 1.707 2.296 1.9 2.296.193 0 .351.27.351.6 0 .33.135.605.3.611.165.006.741.726 1.28 1.6.54.874 1.125 1.589 1.3 1.589.176 0 .325.405.332.9.012.853.036.86.456.136.341-.587.314-.868-.112-1.21-.306-.244-.736-.75-.956-1.123-.22-.374-2.377-3.34-4.793-6.591-2.416-3.252-7.195-9.692-10.62-14.312-12.393-16.718-13.35-18.006-13.675-18.4-.182-.22-2.307-3.1-4.722-6.4-2.416-3.3-7.323-9.96-10.905-14.8-3.582-4.84-6.764-9.34-7.071-10-12.081-25.927 20.464-47.899 37.812-25.528 1.504 1.94 2.843 3.618 2.973 3.728.131.11 1.122 1.37 2.201 2.8 1.079 1.43 2.068 2.69 2.197 2.8.129.11 1.127 1.37 2.219 2.8 1.091 1.43 2.115 2.659 2.276 2.731.16.071.688.836 1.173 1.7.582 1.034 1.164 1.569 1.709 1.569h.826l-.119-57.5c-.087-41.856.005-58.153.337-59.9.583-3.065 1.599-6.222 2.264-7.031.285-.348.518-.837.518-1.087 0-.902 5.842-6.445 8.006-7.597 5.683-3.024 13.361-3.287 17.471-.597 2.104 1.377 2.701.674 2.959-3.488.321-5.168 1.732-8.912 4.861-12.906 1.357-1.732 5.576-5.094 6.393-5.094.302 0 .721-.16.93-.356.832-.779 5.074-1.644 8.042-1.64 7.582.011 13.298 3.675 17.388 11.147 1.508 2.756 2.372 3.192 3.864 1.954 1.845-1.531 6.8-2.454 11.406-2.125 4.674.334 7.924 1.694 11.046 4.62 4.516 4.233 6.834 11.039 6.834 20.067 0 4.979.192 5.264 2.685 3.992 9.257-4.723 21.359-.422 25.349 9.009 2.977 7.035 2.766-.1 2.766 93.598 0 89.368.082 85.266-1.846 92.134-4.264 15.184-15.767 27.552-30.154 32.421-6.488 2.195-9.055 2.371-34.6 2.362-32.805-.011-35.545-.588-49.025-10.322-.729-.527-6.997 4.508-7.132 5.729-.024.214 1.266-.911 2.866-2.5 3.146-3.125 3.538-3.295 4.835-2.101 1.695 1.56 4.912 3.619 7.856 5.026 1.65.789 3.276 1.58 3.613 1.759.337.178 1.19.451 1.896.606.705.155 1.385.448 1.51.651.126.203.803.372 1.505.375.702.003 1.996.265 2.876.582 2.106.759 56.234.902 58.074.154.619-.252 1.936-.595 2.926-.762 7.356-1.24 19.212-8.9 24.204-15.635.221-.3.986-1.291 1.7-2.203.713-.911 1.296-1.856 1.296-2.1 0-.243.157-.442.349-.442.307 0 4.053-7.281 4.836-9.4 1.02-2.761 1.335-3.773 1.617-5.2.174-.88.515-2.229.757-2.997.766-2.428.611-174.423-.159-176.265-.33-.789-.6-1.8-.6-2.245 0-4.162-7.635-12.65-12.295-13.671-.713-.156-1.399-.45-1.524-.653-.397-.643-9.534-.45-10.835.229-.63.328-1.45.598-1.822.6-.372.001-.788.182-.924.402-1.159 1.875-1.705.37-1.996-5.5-.184-3.709-.499-6.301-.848-6.98-.306-.594-.556-1.435-.556-1.868 0-.691-.571-2.078-1.668-4.052a20.654 20.654 0 01-.721-1.495c-.542-1.253-4.766-5.472-6.211-6.204-2.511-1.272-4.071-1.853-6.2-2.307-3.455-.736-10.933-.021-12.112 1.158-.246.246-.753.448-1.125.448-.373 0-.781.27-.908.6-.502 1.309-1.655.569-2.791-1.793-1.977-4.114-8.828-10.407-11.328-10.407-.427 0-.987-.211-1.246-.47-.48-.48-8.353-.868-9.89-.487m1.236 11.186c-2.925 1.072-4.9 2.869-6.342 5.771l-.894 1.8-.106 52.186c-.061 30.263-.257 52.337-.466 52.546-.363.363-8.707.522-9.056.173-.103-.102-.182-18.378-.176-40.612.012-43.956.039-43.399-2.199-46.332-5.058-6.631-14.786-5.557-18.375 2.029l-1.022 2.16v66.665c0 72.141.117 68.069-2.012 69.996-2.97 2.688-5.412 1.122-12.18-7.811-1.084-1.43-2.077-2.69-2.208-2.8-.131-.11-1.087-1.315-2.125-2.677-1.038-1.363-2.115-2.713-2.394-3-.278-.288-1.392-1.693-2.475-3.123-1.083-1.43-2.072-2.69-2.199-2.8-.126-.11-1.845-2.27-3.818-4.8-6.567-8.417-8.732-10-13.678-10-6.758 0-12.911 6.291-12.911 13.2 0 2.821.963 6.8 1.646 6.8.195 0 .354.173.354.385 0 .33 5.646 8.057 21.782 29.815a7588.46 7588.46 0 0118.169 24.6c3.317 4.51 6.323 8.56 6.679 9 .357.44 1.126 1.511 1.709 2.381.584.869 1.466 2.02 1.961 2.558.495.538.9 1.132.9 1.319 0 .188.257.342.572.342.459 0-2.02-3.655-6.102-9a96.447 96.447 0 01-1.288-1.789c-.54-.764-1.208-1.633-1.483-1.93-.276-.298-1.079-1.382-1.784-2.411-.705-1.028-1.616-2.23-2.025-2.67-.409-.44-1.129-1.43-1.602-2.2-.472-.77-1.119-1.667-1.438-1.993-.318-.326-1.185-1.496-1.925-2.6-1.158-1.728-3.155-4.412-4.538-6.098-.221-.271-.977-1.351-1.678-2.4-.702-1.05-1.403-1.964-1.559-2.031-.155-.067-.963-1.192-1.797-2.5-.833-1.308-1.644-2.378-1.801-2.378-.158 0-.7-.675-1.206-1.5s-1.331-1.948-1.833-2.496-.913-1.223-.913-1.5c0-.277-.138-.504-.306-.504-.168 0-.75-.72-1.294-1.6-.544-.88-1.114-1.6-1.267-1.6-.154 0-.383-.315-.51-.7-.127-.385-.767-1.33-1.423-2.1-.655-.77-1.373-1.617-1.596-1.883-.222-.266-.404-.631-.404-.811 0-.18-.532-.91-1.182-1.622-.65-.711-1.808-2.236-2.574-3.389-.766-1.152-1.764-2.492-2.219-2.978-.454-.486-.825-1.031-.825-1.211 0-.18-.495-.884-1.1-1.563-.605-.68-1.28-1.509-1.5-1.842-.22-.333-1.015-1.468-1.766-2.522-2.401-3.367-2.997-10.95-.992-12.614.307-.255.558-.692.558-.971 0-2.286 8.045-6.873 11.392-6.496 2.955.333 8.97 4.249 9.014 5.869.004.128.499.797 1.1 1.487 2.274 2.607 2.802 3.252 3.143 3.843.193.334.918 1.304 1.611 2.156a578.498 578.498 0 0110.922 13.793c1.42 1.845 2.785 3.534 3.033 3.754.247.22 1.115 1.33 1.928 2.468 3.204 4.482 5.684 5.668 8.753 4.183 3.639-1.762 3.277 5.585 3.504-71.251l.2-67.8.874-1.405c4.221-6.787 14.593-6.516 17.846.465.626 1.346.68 4.746.68 43.238 0 39.966.032 41.807.731 42.44 1.043.943 9.303.97 10.24.033.565-.565.629-5.906.629-52.822 0-52.185 0-52.193.841-54.071.891-1.989 2.997-4.478 3.788-4.478.26 0 .697-.27.971-.6 2.09-2.519 12.344.947 12.413 4.196.007.332.277.953.6 1.38.509.674.587 7.422.587 50.686 0 48.935.015 49.918.774 50.324 1.127.603 9.312.534 10.144-.086.62-.462.679-3.96.777-46.067.083-36.022.21-45.601.605-45.733.275-.092.5-.386.5-.655 0-.841 2.521-2.886 4.413-3.58 4.405-1.615 10.43-.082 11.374 2.896.147.461.435.839.64.839.205 0 .373.427.373.95 0 .522.27 1.715.6 2.65.521 1.476.6 8.138.6 50.436 0 47.774.015 48.744.774 49.15 1.221.653 9.428.535 9.991-.144.343-.413.458-8.709.442-31.889-.028-41.677.304-45.017 4.712-47.388 1.736-.934 9.688-1.145 9.981-.265.092.275.382.5.644.5 1.15 0 2.72 3.024 3.633 7 .975 4.241.724 168.192-.263 172.2-.737 2.992-1.395 4.951-2.169 6.462-.3.584-.545 1.334-.545 1.666 0 .333-.135.665-.3.739-.165.073-.655.853-1.089 1.733-2.695 5.469-9.337 11.828-15.211 14.565-3.991 1.86-4.245 1.959-5.8 2.258-.77.148-1.653.474-1.961.723-.85.687-55.689.643-56.518-.045-.331-.275-1.439-.615-2.461-.755-1.023-.14-1.86-.41-1.86-.6s-.206-.346-.458-.346c-.793 0-6.101-2.703-7.042-3.587-1.104-1.035-1.115-1.294-.1-2.213.44-.398.8-.858.8-1.022 0-.165-.54.205-1.2.822-1.694 1.583-1.542 1.985 1.482 3.904 7.796 4.946 10.29 5.282 39.118 5.281 28.683-.001 33.838-.766 40.326-5.983 4.163-3.348 5.496-4.547 6.674-6.003.77-.952 1.589-1.926 1.819-2.165 2.469-2.558 5.66-9.274 7.239-15.234 1.198-4.523 1.152-170.357-.049-174-1.877-5.698-3.785-7.189-9.209-7.195-5.399-.007-7.151.917-8.941 4.719-1.774 3.767-1.79 4.083-2.029 40.676l-.23 35-3.8.117c-2.09.065-4.198.018-4.685-.104l-.885-.221-.115-49.096c-.125-53.28-.005-50.318-2.185-54.251-2.738-4.94-12.466-5.564-16.27-1.044-2.558 3.041-2.447.889-2.568 49.699l-.109 44.3h-4.591c-2.526 0-4.634-.045-4.685-.1-.051-.055-.186-22.6-.3-50.1l-.207-50-.871-1.6c-.999-1.838-3.084-4.2-3.706-4.2-.233 0-.423-.147-.423-.327 0-1.203-5.729-1.936-8.164-1.044M191 209.273c-6.376 1.554-8.186 2.08-9.973 2.895-1.115.509-2.927 1.333-4.027 1.83-1.723.78-5.184 2.942-5.8 3.623-.11.122-.834.606-1.609 1.076-5.828 3.538-12.611 13.254-15.525 22.239l-1.666 5.136v6.604c0 6.451.863 11.888 2.356 14.835.192.379.755 1.589 1.251 2.689.496 1.1 1.793 3.564 2.883 5.475 2.227 3.908 2.233 4.407.077 6.3-.767.674-1.245 1.225-1.062 1.225 2.01 0 3.858-4.359 2.563-6.046-2.253-2.938-5.826-10.643-6.469-13.954-.192-.99-.559-2.675-.816-3.744-.56-2.331-.337-13.566.298-15.056.235-.55.834-2.35 1.331-4 3.303-10.954 12.16-21.068 22.886-26.133 4.164-1.966 6.812-3.067 7.377-3.067.316 0 1.419-.254 2.45-.564 4.797-1.441 12.347-1.758 20.675-.868l2 .214-2.4-.565c-2.792-.658-14.29-.756-16.8-.144m23.6 2.285c9.18 3.158 18.602 10.041 23.458 17.137.717 1.048 1.538 2.143 1.823 2.434.285.29.519.685.519.877 0 .504 1.669 3.258 1.86 3.068.288-.289-2.021-4.444-3.152-5.674-.608-.66-1.105-1.358-1.106-1.552-.006-1.08-10.806-11.048-11.972-11.048-.236 0-.43-.151-.43-.336 0-.184-.405-.538-.9-.786-.495-.247-1.873-1.006-3.062-1.687-1.19-.681-2.9-1.504-3.8-1.83-3.33-1.203-6.455-2.15-7.038-2.133-.33.009 1.38.698 3.8 1.53m27.804 24.653c-.002.446.251 1.175.563 1.62.566.809 1.553 3.976 2.296 7.369 1.423 6.503.276 18.305-2.255 23.2-.285.55-1.077 2.126-1.761 3.503-1.757 3.535-2.045 4.015-3.898 6.491-1.987 2.656-6.938 7.547-9.148 9.037a73.806 73.806 0 00-2.837 2.024c-.682.52-1.425.945-1.653.945-.227 0-.637.27-.911.6-2.206 2.658 6.373-3.471 10.582-7.561 4.855-4.716 11.418-15.178 11.418-18.2 0-.433.197-1.294.439-1.913 1.765-4.532 1.952-12.942.421-18.926-1.161-4.534-3.248-9.785-3.256-8.189m-88.613 50.674c-3.529 3.632-3.059 3.368 1.167-.658 1.517-1.445 2.593-2.627 2.391-2.627-.202 0-1.804 1.478-3.558 3.285M170 289.201l-1 .783 1.304-.481c1.376-.508 3.175.153 6.296 2.314 2.224 1.54 11.044 4.636 12.984 4.558.339-.013-.284-.307-1.384-.653-6.281-1.975-9.311-3.121-10.997-4.158-1.04-.64-2.016-1.164-2.168-1.164-.153 0-.94-.45-1.749-1-1.76-1.196-1.995-1.21-3.286-.199m-21.824.612c.428.323 1.148.566 1.6.541.804-.046.804-.051.024-.239-.44-.106-.971-.355-1.18-.554-.209-.198-.569-.355-.8-.348-.231.007-.071.277.356.6m18.011 3.087l-2.387 2.5 2.5-2.387c2.322-2.218 2.683-2.613 2.387-2.613-.061 0-1.186 1.125-2.5 2.5m53.013-.273c-1.616.825-8.16 3.077-10.2 3.51-.636.135-.595.18.202.217 1.83.084 12.798-3.858 12.798-4.601 0-.338-1.093.003-2.8.874m-58.322 5.092c-1.716 1.771-1.623 2.373.722 4.681 1.1 1.083 2 1.836 2 1.674 0-.161-.81-1.056-1.8-1.988-1.874-1.763-2.142-2.459-1.3-3.37 2.232-2.415 2.54-3.227.378-.997m32.268-.74c1.842.85 11.304.852 13.054.003l1.2-.583-1.6.301c-2.093.392-10.806.373-12.6-.029l-1.4-.313 1.346.621M131.2 298.6c-.972.99-1.677 1.8-1.567 1.8.11 0 .995-.81 1.967-1.8.972-.99 1.677-1.8 1.567-1.8-.11 0-.995.81-1.967 1.8m-18.417 17.3L111 317.8l1.993-1.8c1.095-.99 2.07-1.845 2.166-1.9.096-.055.002-.1-.209-.1s-1.186.855-2.167 1.9m-6.536 6.101c-1.92 2.125-1.949 2.02 1.371 4.997 1.618 1.451 1.589 1.395-.318-.613-2.513-2.645-2.491-2.46-.516-4.416.872-.863 1.433-1.569 1.247-1.569-.186 0-.989.721-1.784 1.601m37.934 1.299L142.6 325l1.7-1.581c1.581-1.471 1.884-1.819 1.581-1.819-.065 0-.83.765-1.7 1.7m-12.396 11.6L129.8 337l2.1-1.985c1.155-1.092 2.1-2.037 2.1-2.1 0-.298-.371.034-2.215 1.985M118 336.525c0 .069.585.654 1.3 1.3l1.3 1.175-1.175-1.3c-1.095-1.212-1.425-1.484-1.425-1.175m4.426 4.553c1.033 1.355 1.907 1.629 2.694.842.821-.821.526-1.285-.327-.514-.786.712-.839.701-2.074-.438l-1.268-1.168.975 1.278" fill="#f15d63"/><path d="M191.4 209.68c-1.1.218-2.844.649-3.875.958-1.031.309-2.134.562-2.45.562-.565 0-3.213 1.101-7.377 3.067-10.726 5.065-19.583 15.179-22.886 26.133-.497 1.65-1.096 3.45-1.331 4-.635 1.49-.858 12.725-.298 15.056.257 1.069.624 2.754.816 3.744.643 3.311 4.216 11.016 6.469 13.954 1.52 1.982 1.102 2.757-4.221 7.825-6.792 6.467-6.47 6.341-9.268 3.621-2.079-2.02-2.991-2.209-4.349-.9-.513.495-3.88 3.78-7.482 7.3a941.73 941.73 0 01-12.748 12.191c-13.135 12.267-17.2 16.216-17.2 16.707 0 .211 1.495 1.805 3.323 3.543 9.238 8.784 15.201 14.37 15.44 14.464.146.057 1.339-.91 2.651-2.15 5.966-5.639 7.952-7.507 13.358-12.56 3.175-2.967 7.269-6.817 9.097-8.555 1.828-1.738 3.731-3.441 4.228-3.785.497-.343 2.309-1.981 4.028-3.64 1.718-1.658 3.293-3.075 3.5-3.148.206-.074.375-.382.375-.686 0-.304.356-.743.791-.976 1.858-.995 1.775-1.872-.376-3.991-2.454-2.415-2.497-3.092-.315-5.034.935-.831 3.457-3.192 5.604-5.246 4.336-4.147 4.315-4.138 6.382-2.734.809.55 1.596 1 1.749 1 .152 0 1.106.508 2.121 1.128 2.774 1.698 10.399 4.261 14.844 4.992 9.448 1.551 23.327-.89 30.4-5.347.33-.208.87-.494 1.2-.635.33-.141 1.141-.655 1.801-1.142.661-.487 1.921-1.371 2.8-1.965 2.21-1.49 7.161-6.381 9.148-9.037 1.853-2.476 2.141-2.956 3.898-6.491a331.978 331.978 0 011.761-3.503c2.531-4.895 3.678-16.697 2.255-23.2-.743-3.393-1.73-6.56-2.296-7.369-.312-.445-.567-1.133-.567-1.528s-.45-1.432-1-2.303-1-1.755-1-1.963c0-.209-.234-.618-.519-.908-.285-.291-1.106-1.386-1.823-2.434-6.001-8.77-18.958-17.029-29.458-18.777-3.347-.558-14.786-.716-17.2-.238m18.336 1.517c1.795.426 4.794 1.336 6.664 2.022 1.87.686 3.76 1.347 4.2 1.469.44.123 1.16.541 1.6.93.44.389 2.15 1.605 3.8 2.702 3.26 2.167 8.929 7.441 10.406 9.68.507.77 1.341 1.857 1.851 2.414 1.107 1.21 3.343 5.701 3.343 6.715 0 .393.45 1.326 1 2.071.55.745 1.003 1.905 1.006 2.578.003.672.265 1.942.582 2.822.663 1.839.805 12.791.206 15.8-.198.99-.54 2.768-.761 3.951-.22 1.183-.66 2.443-.977 2.8-.317.357-1.037 1.752-1.6 3.099-1.151 2.753-2.41 5.042-3.632 6.6a72.228 72.228 0 00-1.541 2.048c-2.35 3.272-9.419 9.126-13.364 11.067-1.495.736-2.989 1.563-3.319 1.839-.33.276-1.05.624-1.6.774-.55.15-1.36.432-1.8.628-5.006 2.223-17.524 3.311-24.2 2.102-4.116-.745-8.129-1.718-8.583-2.082-.229-.183-1.047-.464-1.817-.624-.77-.16-1.67-.519-2-.798-1.166-.984-6.274-3.687-7.362-3.895-1.154-.22-2.049.415-6.824 4.848-7.029 6.524-7.204 6.905-4.414 9.643.99.972 1.8 1.965 1.8 2.207 0 .537-8.013 8.486-11.6 11.507-1.43 1.205-2.982 2.617-3.448 3.138-.467.521-2.535 2.478-4.597 4.348-5.819 5.279-8.578 7.859-13.237 12.381-5.756 5.587-5.087 5.416-8.424 2.164-3.784-3.687-11.071-10.47-13.986-13.019-1.483-1.297-.802-2.106 10.047-11.927a392.826 392.826 0 005.6-5.156c7.867-7.491 10.504-10.03 15.245-14.677 6.208-6.084 6.156-6.059 8.552-4.064 3.409 2.837 3.084 2.939 9.326-2.927 7.253-6.815 7.104-6.452 4.497-10.975-2.935-5.091-4.232-8.092-5.877-13.6-1.394-4.667-.737-16.426 1.169-20.933.403-.953.733-2.064.733-2.467 0-4.82 15.628-22.4 19.913-22.4.214 0 .613-.27.887-.6.274-.33.733-.6 1.02-.6.287 0 1.885-.63 3.552-1.4 1.667-.77 3.358-1.4 3.757-1.4s1.703-.298 2.898-.661c4.93-1.5 15.285-1.569 21.309-.142m-17.994 7.013c-28.077 5.138-39.736 37.692-20.794 58.058 16.063 17.271 44.031 16.316 58.596-2 20.704-26.034-3.746-62.291-37.802-56.058m13.858.583c23.661 3.432 37.529 28.589 27.085 49.137-10.194 20.058-38.182 26.202-56.197 12.337-29.608-22.786-8.69-66.957 29.112-61.474m-10.775 9.674c-7.022 1.003-16.956 7.642-14.745 9.853.806.806 1.372.564 3.949-1.683 7.88-6.873 18.45-7.606 29.623-2.054 3.999 1.987 4.423 2.091 5.122 1.248.777-.935-.25-2.034-3.353-3.589-6.966-3.49-13.81-4.745-20.596-3.775m.175 6.286c-1.32.406-3.03 1.121-3.8 1.589-.77.468-1.662.976-1.983 1.129-.769.367-2.342 1.7-3.382 2.865l-1.929 2.165c-.601.676-1.21 1.605-1.354 2.064-.143.459-.375.925-.517 1.035-1.491 1.161-2.177 10.321-.98 13.086l1.091 2.514c8.242 18.925 39.854 12.687 39.854-7.865 0-5.679-1.108-8.379-5.462-13.307-4.338-4.909-14.58-7.417-21.538-5.275m9.4.047c.415.269.443.39.09.394-.28.003-.689.501-.908 1.106-1.386 3.828-2.471 5.707-3.434 5.949-.503.126-1.125.482-1.381.79-.851 1.026-1.69.692-1.351-.539.166-.605.339-2.11.385-3.344l.082-2.244-2.241-.029c-2.472-.031-2.947.218-4.606 2.417-1.35 1.791-.55 2.124 1.202.5 1.24-1.15 1.17-1.131 2.188-.586.537.287.774.839.774 1.8 0 1.505-.579 1.875-.916.586-.239-.913-1.884-1.122-1.884-.239 0 .308-.526.744-1.169.968-1.439.502-2.052 1.565-1.597 2.771.444 1.174 1.317 1.142 2.281-.082l.772-.983.857.798c1.309 1.22 1.112 1.604-2.511 4.902-2.668 2.429-3.623 3.065-4.6 3.065-1.098 0-1.233.129-1.233 1.176 0 1.628-.529 1.8-1.923.627-1.279-1.076-1.677-.812-1.677 1.11 0 .61-.122.725-.435.412-1.079-1.079.103-7.984 1.935-11.29 1.02-1.843 4.618-6.035 5.178-6.035.136 0 .836-.45 1.558-1 .721-.55 1.758-1 2.304-1 .546 0 1.066-.219 1.156-.487.412-1.236 9.596-2.488 11.104-1.513m4.6 1.2c.144.233-.255.4-.953.4-.66 0-1.311-.18-1.447-.4-.144-.233.255-.4.953-.4.66 0 1.311.18 1.447.4m.205 1.694c3.244 1.463 4.203 3.969 1.188 3.104-2.543-.729-5.269 1.898-4.384 4.226.344.904.258 1.165-.604 1.844-.553.434-1.005 1.028-1.005 1.318 0 .291-.27.632-.6.759-.396.152-.6.778-.6 1.842 0 .887-.189 1.613-.42 1.613-.812 0-1.646 2.727-1.135 3.709.805 1.547 1.874 2.291 3.292 2.291 1.733 0 2.662 1.286 2.664 3.686.004 4.589 2.952 5.473 5.005 1.502.655-1.267 1.394-1.579 1.394-.588 0 .33.18.6.4.6.22 0 .4-.259.4-.576 0-.317-.18-.688-.4-.824-.595-.368-.484-2.433.161-2.967.308-.256.68-.941.826-1.523.146-.581.703-1.577 1.239-2.214.536-.636.974-1.324.974-1.527 0-.739 1.597-.345 2.175.537.592.904.102 3.507-1.034 5.494-.189.33-.527 1.028-.751 1.551-1.125 2.617-7.76 7.471-11.19 8.185-.55.115-1.81.417-2.8.672-6.417 1.652-8.991-.997-6.154-6.333 1.601-3.012 1.291-3.839-2.046-5.459-.88-.427-1.87-.986-2.2-1.241-3.79-2.937-6.47 1.762-3.026 5.305 1.066 1.097 2.012 2.526 2.245 3.391.222.822.578 1.603.792 1.736.214.132.389.501.389.82 0 .586-.285.504-2.4-.69-.33-.186-.96-.5-1.4-.698-1.215-.545-4.382-3.735-5.234-5.274-.417-.751-.96-1.635-1.207-1.965-.248-.33-.55-1.23-.671-2s-.344-1.713-.495-2.096c-.239-.603.024-.564 1.957.291 2.463 1.089 3.692 1.005 3.043-.208-.216-.403-.752-.847-1.193-.987-1.393-.442-1.011-1.8.506-1.8 1.021 0 1.683-.389 3.035-1.784.951-.981 2.073-1.894 2.494-2.027.421-.134.765-.415.765-.626 0-.21.433-.548.963-.749 1.059-.403.903-2.955-.222-3.651-.285-.176-.433-.374-.329-.441.103-.067.548-.32.988-.563 2.069-1.139 1.022-4.929-1.376-4.982-.909-.02-.867-.077.376-.509.77-.268 1.46-.348 1.533-.178.074.171.483.31.909.31 1.294 0 1.822 1.758 1.027 3.424-1.311 2.75-.406 3.686 2.042 2.113.819-.526 1.826-1.137 2.238-1.358.62-.333 1.488-2.189 2.482-5.314.223-.7 2.897-.288 5.374.829m3.234-.226c5.111 2.51 9.161 9.68 9.161 16.222 0 1.904-.18 3.574-.4 3.71-.237.146-.4-.311-.4-1.122 0-1.86-1.316-3.478-2.829-3.478-.949 0-1.171.171-1.171.904 0 .497-.351 1.123-.78 1.391-.429.268-.899 1.121-1.045 1.896-.145.775-.41 1.409-.588 1.409-.179 0-.544.675-.813 1.5-2.049 6.302-5.574 7.397-5.574 1.732 0-2.51-1.114-4.032-2.953-4.032-2.557 0-3.495-1.753-2.247-4.2.44-.863.8-1.989.8-2.501 0-.513.182-1.15.404-1.416.223-.266.776-.978 1.229-1.583.454-.605 1.088-1.1 1.41-1.1 1.095 0 2.557-1.271 2.557-2.222 0-1.35-.722-1.587-1.257-.413-.528 1.159-1.147 1.001-1.134-.289.023-2.298 1.639-3.036 4.591-2.096 2.38.757 1.434-3.044-1.11-4.457-1.466-.815.459-.684 2.149.145m-19.239 5.09c0 .38-2.364 2.642-2.76 2.642-.896 0-.413-1.589.66-2.171 1.052-.571 2.1-.806 2.1-.471m12.667 6.909c-.556.555-.253 1.733.444 1.733.391 0 1.076.256 1.522.568 1.299.91 3.54.626 3.695-.468.111-.781-.051-.9-1.224-.9-.743 0-1.7-.264-2.128-.587-.828-.627-1.872-.783-2.309-.346m-11.225 9.169c3.744 1.952 3.999 2.496 2.595 5.52-2.377 5.118-2.312 4.733-1.019 6.026.957.957 1.287 1.023 5.5 1.102l4.482.085-4.2.143c-5.413.184-10.519-.912-7.989-1.715.89-.283.798-1.25-.265-2.786-.3-.434-.546-1.176-.546-1.65 0-.495-.765-1.602-1.8-2.605-1.557-1.508-1.8-1.966-1.8-3.383 0-2.718.969-2.86 5.042-.737m-11.842.545c0 .638.262 1.234.6 1.364.33.126.6.601.6 1.055 0 .454.27.929.6 1.055.33.127.6.383.6.569 0 .484 3.781 4.2 4.661 4.58.705.305.703.328-.046.504-.431.101-.851-.017-.933-.262-.082-.245-.377-.446-.656-.446-.673 0-4.992-5.15-5.284-6.3-.126-.495-.368-.9-.539-.9-.426 0-.796-1.552-.534-2.236.338-.881.931-.233.931 1.017m37.232 1.542c-.238.079-.432.429-.432.777 0 .725-.216.991-3.574 4.4-2.054 2.086-4.722 3.551-3.826 2.1.136-.22.597-.4 1.024-.4.427 0 .776-.27.776-.6 0-.33.27-.6.6-.6.33 0 .602-.135.605-.3.003-.165.723-1.073 1.6-2.017.877-.945 1.595-1.986 1.595-2.313 0-.327.27-.699.6-.825.33-.127.6-.721.6-1.321 0-1.616.579-1.911.732-.373.073.73-.062 1.392-.3 1.472M192.4 269.2c0 .22-.349.4-.776.4-.427 0-.888-.18-1.024-.4-.14-.227.196-.4.776-.4.563 0 1.024.18 1.024.4m19.4 0c-.136.22-.607.4-1.047.4-.44 0-.689-.18-.553-.4.136-.22.607-.4 1.047-.4.44 0 .689.18.553.4m-2.6 1.2c-.786.508-2 .508-2 0 0-.22.585-.397 1.3-.394.986.005 1.155.1.7.394" fill="#bd7490"/></g></svg>